<?xml version="1.0" encoding="UTF-8" standalone="no"?>
<svg
   width="1000mm"
   height="1000mm"
   viewBox="0 0 1000 1000"
   version="1.1"
   id="DojoTriesteLogo"
   xml:space="preserve"
   xmlns="http://www.w3.org/2000/svg"
   xmlns:svg="http://www.w3.org/2000/svg"><defs
     id="defs2" /><g
     id="layer1"
     transform="matrix(1.2986921,0,0,1.2104537,-169.66362,-79.538708)"
     style="display:inline;opacity:1"><path
       style="display:inline;opacity:1;fill:#000000;fill-opacity:0.997768;stroke:none;stroke-width:0.168532;stroke-dasharray:none"
       d="m 518.78906,70.0625 c -6.39405,14.546251 -17.9642,26.975388 -32.51367,33.55469 -9.55394,4.34702 -20.11223,5.40048 -30.37109,6.96875 -14.31491,2.15971 -28.59063,5.96659 -41.22461,13.21484 -10.68922,6.04302 -20.07083,14.52531 -26.6836,24.9082 -1.64267,2.55733 -3.12459,5.21775 -4.43359,7.96094 3.80161,9.17893 7.60269,18.35818 11.4043,27.53711 2.6786,-12.98595 9.13726,-25.23669 18.69922,-34.46875 5.87421,-5.76735 12.79912,-10.62732 20.6582,-13.24805 9.99022,-3.40668 20.53405,-4.57329 30.84375,-6.62304 8.48461,-1.66798 16.97308,-3.49534 25.15625,-6.32813 6.07079,-2.09514 11.75733,-5.28353 16.64844,-9.45117 4.33406,-3.6446 8.26982,-7.75443 11.8164,-12.16601 3.54658,4.41158 7.48235,8.52141 11.81641,12.16601 4.89111,4.16764 10.57765,7.35603 16.64844,9.45117 8.18317,2.83279 16.66968,4.66015 25.15429,6.32813 10.3097,2.04975 20.85353,3.21636 30.84375,6.62304 7.85908,2.62073 14.78595,7.4807 20.66016,13.24805 9.56196,9.23206 16.01867,21.4828 18.69727,34.46875 3.80161,-9.17893 7.60463,-18.35818 11.40624,-27.53711 -1.30899,-2.74319 -2.79287,-5.40361 -4.43554,-7.96094 -6.61277,-10.38289 -15.99242,-18.86518 -26.68164,-24.9082 -12.63398,-7.24825 -26.91165,-11.05513 -41.22656,-13.21484 -10.25886,-1.56827 -20.81521,-2.62173 -30.36915,-6.96875 C 536.75327,97.037888 525.18312,84.608751 518.78906,70.0625 Z m 0,826.13633 c -6.39405,-14.54625 -17.9642,-26.97539 -32.51367,-33.55469 -9.55394,-4.34702 -20.11223,-5.40048 -30.37109,-6.96875 -14.31491,-2.15971 -28.59063,-5.96659 -41.22461,-13.21484 -10.68922,-6.04302 -20.07083,-14.52531 -26.6836,-24.9082 -1.64267,-2.55733 -3.12459,-5.21775 -4.43359,-7.96094 3.80161,-9.17893 7.60269,-18.35818 11.4043,-27.53711 2.6786,12.98595 9.13726,25.23669 18.69922,34.46875 5.87421,5.76735 12.79912,10.62732 20.6582,13.24805 9.99022,3.40668 20.53405,4.57329 30.84375,6.62304 8.48461,1.66798 16.97308,3.49534 25.15625,6.32813 6.07079,2.09514 11.75733,5.28353 16.64844,9.45117 4.33406,3.6446 8.26982,7.75443 11.8164,12.16601 3.54658,-4.41158 7.48235,-8.52141 11.81641,-12.16601 4.89111,-4.16764 10.57765,-7.35603 16.64844,-9.45117 8.18317,-2.83279 16.66968,-4.66015 25.15429,-6.32813 10.3097,-2.04975 20.85353,-3.21636 30.84375,-6.62304 7.85908,-2.62073 14.78595,-7.4807 20.66016,-13.24805 9.56196,-9.23206 16.01867,-21.4828 18.69727,-34.46875 3.80161,9.17893 7.60463,18.35818 11.40624,27.53711 -1.30899,2.74319 -2.79287,5.40361 -4.43554,7.96094 -6.61277,10.38289 -15.99242,18.86518 -26.68164,24.9082 -12.63398,7.24825 -26.91165,11.05513 -41.22656,13.21484 -10.25886,1.56827 -20.81521,2.62173 -30.36915,6.96875 -14.54946,6.5793 -26.11961,19.00844 -32.51367,33.55469 z M 105.72041,483.13393 c 14.54625,6.39405 26.97539,17.9642 33.55469,32.51367 4.34702,9.55394 5.40048,20.11223 6.96875,30.37109 2.15971,14.31491 5.96659,28.59063 13.21484,41.22461 6.04302,10.68922 14.52531,20.07083 24.9082,26.6836 2.55733,1.64267 5.21775,3.12459 7.96094,4.43359 9.17893,-3.80161 18.35818,-7.60269 27.53711,-11.4043 -12.98595,-2.6786 -25.23669,-9.13726 -34.46875,-18.69922 -5.76735,-5.87421 -10.62732,-12.79912 -13.24805,-20.6582 -3.40668,-9.99022 -4.57329,-20.53405 -6.62304,-30.84375 -1.66798,-8.48461 -3.49534,-16.97308 -6.32813,-25.15625 -2.09514,-6.07079 -5.28353,-11.75733 -9.45117,-16.64844 -3.6446,-4.33406 -7.75443,-8.26982 -12.16601,-11.8164 4.41158,-3.54658 8.52141,-7.48235 12.16601,-11.81641 4.16764,-4.89111 7.35603,-10.57765 9.45117,-16.64844 2.83279,-8.18317 4.66015,-16.66968 6.32813,-25.15429 2.04975,-10.3097 3.21636,-20.85353 6.62304,-30.84375 2.62073,-7.85908 7.4807,-14.78595 13.24805,-20.66016 9.23206,-9.56196 21.4828,-16.01867 34.46875,-18.69727 -9.17893,-3.80161 -18.35818,-7.60463 -27.53711,-11.40624 -2.74319,1.30899 -5.40361,2.79287 -7.96094,4.43554 -10.38289,6.61277 -18.86518,15.99242 -24.9082,26.68164 -7.24825,12.63398 -11.05513,26.91165 -13.21484,41.22656 -1.56827,10.25886 -2.62173,20.81521 -6.96875,30.36915 -6.5793,14.54946 -19.00844,26.11961 -33.55469,32.51367 z m 826.13633,0 c -14.54625,6.39405 -26.97539,17.9642 -33.55469,32.51367 -4.34702,9.55394 -5.40048,20.11223 -6.96875,30.37109 -2.15971,14.31491 -5.96659,28.59063 -13.21484,41.22461 -6.04302,10.68922 -14.52531,20.07083 -24.9082,26.6836 -2.55733,1.64267 -5.21775,3.12459 -7.96094,4.43359 -9.17893,-3.80161 -18.35818,-7.60269 -27.53711,-11.4043 12.98595,-2.6786 25.23669,-9.13726 34.46875,-18.69922 5.76735,-5.87421 10.62732,-12.79912 13.24805,-20.6582 3.40668,-9.99022 4.57329,-20.53405 6.62304,-30.84375 1.66798,-8.48461 3.49534,-16.97308 6.32813,-25.15625 2.09514,-6.07079 5.28353,-11.75733 9.45117,-16.64844 3.6446,-4.33406 7.75443,-8.26982 12.16601,-11.8164 -4.41158,-3.54658 -8.52141,-7.48235 -12.16601,-11.81641 -4.16764,-4.89111 -7.35603,-10.57765 -9.45117,-16.64844 -2.83279,-8.18317 -4.66015,-16.66968 -6.32813,-25.15429 -2.04975,-10.3097 -3.21636,-20.85353 -6.62304,-30.84375 -2.62073,-7.85908 -7.4807,-14.78595 -13.24805,-20.66016 -9.23206,-9.56196 -21.4828,-16.01867 -34.46875,-18.69727 9.17893,-3.80161 18.35818,-7.60463 27.53711,-11.40624 2.74319,1.30899 5.40361,2.79287 7.96094,4.43554 10.38289,6.61277 18.86518,15.99242 24.9082,26.68164 7.24825,12.63398 11.05513,26.91165 13.21484,41.22656 1.56827,10.25886 2.62173,20.81521 6.96875,30.36915 6.5793,14.54946 19.00844,26.11961 33.55469,32.51367 z M 226.70698,191.04697 c 5.76448,14.80702 6.37187,31.77708 0.73611,46.71738 -3.68184,9.82946 -10.40277,18.04021 -16.54795,26.40326 -8.59502,11.64931 -15.99761,24.43564 -19.8059,38.4945 -3.28536,11.83148 -3.92127,24.46316 -1.25539,36.48091 0.64676,2.96985 1.48008,5.89893 2.49421,8.76426 9.17863,3.80234 18.35711,7.60528 27.53573,11.40762 -7.28839,-11.07651 -11.38401,-24.30606 -11.15074,-37.59544 0.0756,-8.23182 1.5357,-16.56499 5.23977,-23.97533 4.65526,-9.47304 11.28596,-17.75358 17.12663,-26.49303 4.82008,-7.17896 9.5302,-14.47335 13.31349,-22.26281 2.81121,-5.77419 4.57767,-12.04971 5.08924,-18.45522 0.48752,-5.64176 0.36443,-11.33085 -0.24721,-16.95812 5.62726,0.61165 11.31636,0.73473 16.95813,0.2472 6.4055,-0.51157 12.68102,-2.27803 18.45521,-5.08923 7.78946,-3.78329 15.08247,-8.49202 22.26143,-13.31211 8.73945,-5.84067 17.01998,-12.47136 26.49302,-17.12663 7.41035,-3.70407 15.7449,-5.16559 23.97673,-5.24115 13.28938,-0.23328 26.51754,3.86372 37.59405,11.15212 -3.80234,-9.17863 -7.60391,-18.35848 -11.40625,-27.53711 -2.86532,-1.01413 -5.79578,-1.84607 -8.76563,-2.49283 -12.01775,-2.66588 -24.64805,-2.03135 -36.47953,1.25401 -14.05886,3.80829 -26.84656,11.21225 -38.49588,19.80728 -8.36304,6.14517 -16.57242,12.86473 -26.40188,16.54658 -14.94029,5.63575 -31.91035,5.02836 -46.71739,-0.73611 z m 584.1666,584.1666 c -14.80703,-5.76448 -31.77708,-6.37188 -46.71738,-0.73612 -9.82947,3.68185 -18.04021,10.40278 -26.40326,16.54796 -11.64931,8.59502 -24.43564,15.99761 -38.4945,19.8059 -11.83148,3.28536 -24.46317,3.92127 -36.48091,1.25539 -2.96985,-0.64676 -5.89893,-1.48008 -8.76426,-2.49421 -3.80234,-9.17863 -7.60528,-18.35711 -11.40762,-27.53573 11.07651,7.28839 24.30606,11.38401 37.59543,11.15074 8.23183,-0.0756 16.565,-1.5357 23.97534,-5.23977 9.47304,-4.65527 17.75357,-11.28596 26.49302,-17.12663 7.17897,-4.82008 14.47336,-9.5302 22.26282,-13.31349 5.77419,-2.81121 12.04971,-4.57767 18.45521,-5.08924 5.64177,-0.48752 11.33086,-0.36443 16.95813,0.24721 -0.61165,-5.62727 -0.73473,-11.31636 -0.24721,-16.95813 0.51158,-6.4055 2.27803,-12.68103 5.08924,-18.45521 3.78329,-7.78946 8.49202,-15.08247 13.31211,-22.26143 5.84067,-8.73945 12.47136,-17.01999 17.12663,-26.49302 3.70407,-7.41035 5.16559,-15.7449 5.24115,-23.97673 0.23327,-13.28938 -3.86372,-26.51754 -11.15212,-37.59405 9.17863,3.80234 18.35848,7.60391 27.53711,11.40625 1.01413,2.86532 1.84607,5.79578 2.49283,8.76563 2.66588,12.01775 2.03135,24.64805 -1.25401,36.47953 -3.80829,14.05886 -11.21225,26.84656 -19.80728,38.49588 -6.14517,8.36304 -12.86473,16.57242 -16.54658,26.40188 -5.63575,14.94029 -5.02836,31.91035 0.73611,46.71739 z m -584.16463,0.003 c 14.80703,-5.76448 31.77709,-6.37187 46.71738,-0.73611 9.82947,3.68184 18.04021,10.40277 26.40326,16.54795 11.64931,8.59502 24.43564,15.99761 38.4945,19.8059 11.83148,3.28536 24.46317,3.92127 36.48091,1.2554 2.96985,-0.64677 5.89893,-1.48009 8.76426,-2.49422 3.80234,-9.17863 7.60528,-18.35711 11.40762,-27.53573 -11.07651,7.28839 -24.30605,11.38401 -37.59543,11.15074 -8.23183,-0.0756 -16.565,-1.5357 -23.97534,-5.23977 -9.47304,-4.65526 -17.75357,-11.28596 -26.49302,-17.12663 -7.17897,-4.82008 -14.47336,-9.5302 -22.26282,-13.31349 -5.77419,-2.81121 -12.04971,-4.57767 -18.45521,-5.08924 -5.64177,-0.48752 -11.33086,-0.36443 -16.95813,0.24721 0.61165,-5.62726 0.73473,-11.31636 0.24721,-16.95813 -0.51157,-6.4055 -2.27803,-12.68102 -5.08924,-18.45521 -3.78329,-7.78946 -8.49202,-15.08247 -13.31211,-22.26143 -5.84066,-8.73945 -12.47136,-17.01998 -17.12663,-26.49302 -3.70407,-7.41035 -5.16559,-15.7449 -5.24115,-23.97673 -0.23327,-13.28938 3.86372,-26.51754 11.15212,-37.59405 -9.17863,3.80234 -18.35848,7.60391 -27.53711,11.40625 -1.01413,2.86532 -1.84607,5.79578 -2.49283,8.76563 -2.66588,12.01775 -2.03135,24.64805 1.25401,36.47953 3.80829,14.05886 11.21225,26.84657 19.80728,38.49588 6.14517,8.36304 12.86473,16.57242 16.54658,26.40188 5.63575,14.94029 5.02836,31.91035 -0.73611,46.71739 z m 584.1666,-584.1666 c -5.76448,14.80703 -6.37187,31.77708 -0.73611,46.71738 3.68184,9.82947 10.40277,18.04021 16.54795,26.40326 8.59502,11.64931 15.99761,24.43564 19.8059,38.4945 3.28536,11.83148 3.92127,24.46317 1.2554,36.48091 -0.64677,2.96985 -1.48009,5.89893 -2.49422,8.76426 -9.17863,3.80234 -18.3571,7.60528 -27.53573,11.40762 7.28839,-11.07651 11.38401,-24.30605 11.15074,-37.59543 -0.0756,-8.23183 -1.5357,-16.565 -5.23977,-23.97534 -4.65526,-9.47304 -11.28596,-17.75357 -17.12663,-26.49302 -4.82008,-7.17897 -9.5302,-14.47336 -13.31349,-22.26282 -2.81121,-5.77419 -4.57767,-12.04971 -5.08924,-18.45521 -0.48752,-5.64177 -0.36443,-11.33086 0.24722,-16.95813 -5.62727,0.61165 -11.31637,0.73473 -16.95814,0.24721 -6.4055,-0.51157 -12.68102,-2.27803 -18.45521,-5.08924 -7.78946,-3.78329 -15.08247,-8.49202 -22.26143,-13.31211 -8.73945,-5.84066 -17.01998,-12.47136 -26.49302,-17.12663 -7.41035,-3.70407 -15.7449,-5.16559 -23.97673,-5.24115 -13.28938,-0.23327 -26.51754,3.86372 -37.59405,11.15212 3.80234,-9.17863 7.60391,-18.35848 11.40625,-27.53711 2.86532,-1.01413 5.79578,-1.84607 8.76563,-2.49283 12.01775,-2.66588 24.64805,-2.03135 36.47953,1.25401 14.05886,3.80829 26.84657,11.21225 38.49588,19.80728 8.36304,6.14517 16.57242,12.86473 26.40188,16.54658 14.94029,5.63575 31.91035,5.02836 46.71739,-0.73611 z"
       id="path1248"
       transform="matrix(0.93205594,0,0,1,32.104651,-4.352577)"
       class="UnoptimicedTransforms" /></g><g
     id="layer4"
     style="display:inline"><circle
       style="opacity:1;fill:#f5780b;fill-opacity:1;stroke:none;stroke-width:0.209911"
       id="path2651"
       cx="500"
       cy="500"
       r="200" /></g></svg>
